{
  "accessors": [
    {
      "bufferView": 2,
      "componentType": 5126,
      "count": 4607,
      "max": [
        12.818984985351562,
        16.608257293701172,
        33.933254241943359
      ],
      "min": [
        -12.818984985351562,
        -21.431068420410156,
        3.0162630081176758
      ],
      "type": "VEC3"
    },
    {
      "bufferView": 2,
      "byteOffset": 55284,
      "componentType": 5126,
      "count": 4607,
      "max": [
        1,
        1,
        1
      ],
      "min": [
        -1,
        -1,
        -1
      ],
      "type": "VEC3"
    },
    {
      "bufferView": 3,
      "componentType": 5126,
      "count": 4607,
      "max": [
        0.99999570846557617,
        0.99830812215805054,
        0.99902015924453735,
        1
      ],
      "min": [
        -0.99997830390930176,
        -0.99990385770797729,
        -0.99996364116668701,
        -1
      ],
      "type": "VEC4"
    },
    {
      "bufferView": 1,
      "componentType": 5126,
      "count": 4607,
      "max": [
        0.99800002574920654,
        0.94523000717163086
      ],
      "min": [
        -0.99800002574920654,
        0.0020000000949949026
      ],
      "type": "VEC2"
    },
    {
      "bufferView": 0,
      "componentType": 5125,
      "count": 14328,
      "max": [
        4606
      ],
      "min": [
        0
      ],
      "type": "SCALAR"
    },
    {
      "bufferView": 2,
      "byteOffset": 110568,
      "componentType": 5126,
      "count": 3643,
      "max": [
        12.818984985351562,
        16.003410339355469,
        32.605201721191406
      ],
      "min": [
        -12.818984985351562,
        -20.903751373291016,
        3.2665200233459473
      ],
      "type": "VEC3"
    },
    {
      "bufferView": 2,
      "byteOffset": 154284,
      "componentType": 5126,
      "count": 3643,
      "max": [
        0.99888038635253906,
        1,
        1
      ],
      "min": [
        -0.99888038635253906,
        -1,
        -1
      ],
      "type": "VEC3"
    },
    {
      "bufferView": 3,
      "byteOffset": 73712,
      "componentType": 5126,
      "count": 3643,
      "max": [
        0.99998956918716431,
        0.99701380729675293,
        0.99998182058334351,
        1
      ],
      "min": [
        -0.99888938665390015,
        -0.99871093034744263,
        -0.99935096502304077,
        -1
      ],
      "type": "VEC4"
    },
    {
      "bufferView": 1,
      "byteOffset": 36856,
      "componentType": 5126,
      "count": 3643,
      "max": [
        0.99763298034667969,
        0.99800002574920654
      ],
      "min": [
        -0.99800002574920654,
        0.0020000000949949026
      ],
      "type": "VEC2"
    },
    {
      "bufferView": 0,
      "byteOffset": 57312,
      "componentType": 5125,
      "count": 12432,
      "max": [
        3642
      ],
      "min": [
        0
      ],
      "type": "SCALAR"
    }
  ],
  "asset": {
    "extras": {
      "author": "McCarthy3D (https://sketchfab.com/joshuawatt811)",
      "license": "CC-BY-4.0 (http://creativecommons.org/licenses/by/4.0/)",
      "source": "https://sketchfab.com/3d-models/recon-helmet-7de7e0104b2249ed98bb437f760dffec",
      "title": "Recon Helmet"
    },
    "generator": "Sketchfab-9.28.2",
    "version": "2.0"
  },
  "bufferViews": [
    {
      "buffer": 0,
      "byteLength": 107040,
      "byteOffset": 0,
      "name": "floatBufferViews",
      "target": 34963
    },
    {
      "buffer": 0,
      "byteLength": 66000,
      "byteOffset": 107040,
      "byteStride": 8,
      "name": "floatBufferViews",
      "target": 34962
    },
    {
      "buffer": 0,
      "byteLength": 198000,
      "byteOffset": 173040,
      "byteStride": 12,
      "name": "floatBufferViews",
      "target": 34962
    },
    {
      "buffer": 0,
      "byteLength": 132000,
      "byteOffset": 371040,
      "byteStride": 16,
      "name": "floatBufferViews",
      "target": 34962
    }
  ],
  "buffers": [
    {
      "byteLength": 503040,
      "uri": "scene.bin"
    }
  ],
  "images": [
    {
      "uri": "textures/Spartan_Black_Shader_baseColor.png"
    },
    {
      "uri": "textures/Spartan_Black_Shader_metallicRoughness.png"
    },
    {
      "uri": "textures/Spartan_Black_Shader_emissive.png"
    },
    {
      "uri": "textures/Spartan_Black_Shader_normal.png"
    }
  ],
  "materials": [
    {
      "doubleSided": false,
      "emissiveFactor": [
        1,
        1,
        1
      ],
      "emissiveTexture": {
        "index": 2,
        "texCoord": 0
      },
      "name": "Spartan_Black_Shader",
      "normalTexture": {
        "index": 3,
        "scale": 1,
        "texCoord": 0
      },
      "occlusionTexture": {
        "index": 1,
        "strength": 1,
        "texCoord": 0
      },
      "pbrMetallicRoughness": {
        "baseColorFactor": [
          1,
          1,
          1,
          1
        ],
        "baseColorTexture": {
          "index": 0,
          "texCoord": 0
        },
        "metallicFactor": 1,
        "metallicRoughnessTexture": {
          "index": 1,
          "texCoord": 0
        },
        "roughnessFactor": 1
      }
    }
  ],
  "meshes": [
    {
      "primitives": [
        {
          "attributes": {
            "NORMAL": 1,
            "POSITION": 0,
            "TANGENT": 2,
            "TEXCOORD_0": 3
          },
          "indices": 4,
          "material": 0,
          "mode": 4
        }
      ]
    },
    {
      "primitives": [
        {
          "attributes": {
            "NORMAL": 6,
            "POSITION": 5,
            "TANGENT": 7,
            "TEXCOORD_0": 8
          },
          "indices": 9,
          "material": 0,
          "mode": 4
        }
      ]
    }
  ],
  "nodes": [
    {
      "children": [
        1
      ],
      "name": "RootNode (gltf orientation matrix)",
      "rotation": [
        -0.70710678118654746,
        -0,
        -0,
        0.70710678118654757
      ]
    },
    {
      "children": [
        2
      ],
      "matrix": [
        0.012694287113845348,
        0,
        0,
        0,
        0,
        0.012694287113845348,
        0,
        0,
        0,
        0,
        0.012694287113845348,
        0,
        0,
        0,
        0,
        1
      ],
      "name": "RootNode (model correction matrix)"
    },
    {
      "children": [
        3,
        4
      ],
      "name": "Scout_Helm_LP.obj.cleaner.materialmerger.gles"
    },
    {
      "mesh": 0,
      "name": ""
    },
    {
      "mesh": 1,
      "name": ""
    }
  ],
  "samplers": [
    {
      "magFilter": 9729,
      "minFilter": 9987,
      "wrapS": 10497,
      "wrapT": 10497
    }
  ],
  "scene": 0,
  "scenes": [
    {
      "name": "OSG_Scene",
      "nodes": [
        0
      ]
    }
  ],
  "textures": [
    {
      "sampler": 0,
      "source": 0
    },
    {
      "sampler": 0,
      "source": 1
    },
    {
      "sampler": 0,
      "source": 2
    },
    {
      "sampler": 0,
      "source": 3
    }
  ]
}

